<svg width="26" height="26" viewBox="0 0 26 26" fill="none" xmlns="http://www.w3.org/2000/svg">
<path fill-rule="evenodd" clip-rule="evenodd" d="M5.73315 0.5C6.3328 0.5 6.81891 0.986108 6.81891 1.58575V3.99992C10.9125 3.63536 15.0305 3.63537 19.1241 3.99993V1.58575C19.1241 0.986108 19.6102 0.5 20.2098 0.5C20.8095 0.5 21.2956 0.986108 21.2956 1.58575V4.21535C23.457 4.52096 25.1646 6.23055 25.4536 8.41127L25.5789 9.35653C26.1059 13.3323 26.0604 17.3631 25.4438 21.3259C25.1383 23.2891 23.5435 24.7969 21.5663 24.9919L19.8393 25.1622C15.2718 25.6126 10.6711 25.6126 6.10365 25.1622L4.37657 24.9919C2.39943 24.7969 0.804596 23.2891 0.499124 21.3259C-0.117522 17.3631 -0.163038 13.3323 0.363965 9.35653L0.489262 8.41127C0.778328 6.23053 2.48593 4.52092 4.6474 4.21534V1.58575C4.6474 0.986108 5.13351 0.5 5.73315 0.5ZM6.3776 6.22235C10.7629 5.7899 15.18 5.7899 19.5653 6.22235L20.8761 6.35162C22.1309 6.47536 23.1353 7.4467 23.301 8.69662L23.4263 9.64187C23.47 9.9721 23.5097 10.3027 23.5451 10.6337H2.39782C2.43326 10.3027 2.47287 9.97211 2.51664 9.64188L2.64194 8.69662C2.80762 7.4467 3.81205 6.47536 5.06681 6.35162L6.3776 6.22235ZM2.22521 12.8052C2.08308 15.5385 2.22311 18.282 2.64481 20.9921C2.79803 21.9767 3.59798 22.733 4.58969 22.8308L6.31676 23.0012C10.7425 23.4376 15.2004 23.4376 19.6262 23.0012L21.3532 22.8308C22.3449 22.733 23.1449 21.9767 23.2981 20.9921C23.7198 18.282 23.8598 15.5385 23.7177 12.8052H2.22521Z" fill="#FE7524"/>
</svg>
