<svg width="30" height="30" viewBox="0 0 30 30" fill="none" xmlns="http://www.w3.org/2000/svg">
<path d="M21.25 2.49951H8.75C5.29822 2.49951 2.5 5.29773 2.5 8.74951V21.2495C2.5 24.7013 5.29822 27.4995 8.75 27.4995H21.25C24.7018 27.4995 27.5 24.7013 27.5 21.2495V8.74951C27.5 5.29773 24.7018 2.49951 21.25 2.49951Z" stroke="#094174" stroke-linecap="round" stroke-linejoin="round"/>
<path d="M20.0006 14.2124C20.1549 15.2527 19.9772 16.3152 19.4928 17.2487C19.0084 18.1822 18.242 18.9392 17.3026 19.412C16.3632 19.8848 15.2987 20.0494 14.2603 19.8823C13.222 19.7152 12.2628 19.225 11.5192 18.4813C10.7755 17.7377 10.2853 16.7785 10.1182 15.7402C9.95111 14.7018 10.1157 13.6373 10.5885 12.6979C11.0613 11.7585 11.8183 10.9921 12.7518 10.5077C13.6853 10.0233 14.7478 9.84562 15.7881 9.99989C16.8493 10.1572 17.8317 10.6517 18.5902 11.4103C19.3488 12.1688 19.8433 13.1512 20.0006 14.2124Z" stroke="#094174" stroke-linecap="round" stroke-linejoin="round"/>
<path d="M21.875 8.12451H21.8859" stroke="#094174" stroke-linecap="round" stroke-linejoin="round"/>
</svg>
