<svg width="30" height="30" viewBox="0 0 30 30" fill="none" xmlns="http://www.w3.org/2000/svg">
<path d="M20 9.99951C21.9891 9.99951 23.8968 10.7897 25.3033 12.1962C26.7098 13.6027 27.5 15.5104 27.5 17.4995V26.2495H22.5V17.4995C22.5 16.8365 22.2366 16.2006 21.7678 15.7317C21.2989 15.2629 20.663 14.9995 20 14.9995C19.337 14.9995 18.7011 15.2629 18.2322 15.7317C17.7634 16.2006 17.5 16.8365 17.5 17.4995V26.2495H12.5V17.4995C12.5 15.5104 13.2902 13.6027 14.6967 12.1962C16.1032 10.7897 18.0109 9.99951 20 9.99951V9.99951Z" stroke="#094174" stroke-linecap="round" stroke-linejoin="round"/>
<path d="M7.5 11.25H2.5V26.25H7.5V11.25Z" stroke="#094174" stroke-linecap="round" stroke-linejoin="round"/>
<path d="M5 7.49951C6.38071 7.49951 7.5 6.38022 7.5 4.99951C7.5 3.6188 6.38071 2.49951 5 2.49951C3.61929 2.49951 2.5 3.6188 2.5 4.99951C2.5 6.38022 3.61929 7.49951 5 7.49951Z" stroke="#094174" stroke-linecap="round" stroke-linejoin="round"/>
</svg>
