<svg width="15" height="19" viewBox="0 0 15 19" fill="none" xmlns="http://www.w3.org/2000/svg">
<path d="M7.41667 18.875C6.10098 17.7527 4.88145 16.5224 3.77083 15.1969C2.10417 13.2062 0.125001 10.2417 0.125001 7.41666C0.124278 5.97391 0.551572 4.56338 1.35281 3.36356C2.15404 2.16375 3.2932 1.2286 4.62611 0.67645C5.95903 0.124303 7.42578 -0.0200161 8.84075 0.261756C10.2557 0.543529 11.5553 1.23873 12.575 2.25937C13.2539 2.93526 13.792 3.7391 14.1582 4.62434C14.5244 5.50959 14.7114 6.45867 14.7083 7.41666C14.7083 10.2417 12.7292 13.2062 11.0625 15.1969C9.95188 16.5224 8.73235 17.7527 7.41667 18.875ZM7.41667 2.20833C6.03584 2.20998 4.71204 2.75925 3.73565 3.73564C2.75925 4.71203 2.20999 6.03583 2.20833 7.41666C2.20833 8.63124 2.75729 10.7344 5.36979 13.8604C6.01368 14.6292 6.69688 15.3642 7.41667 16.0625C8.13648 15.365 8.82001 14.6311 9.46458 13.8635C12.076 10.7333 12.625 8.6302 12.625 7.41666C12.6233 6.03583 12.0741 4.71203 11.0977 3.73564C10.1213 2.75925 8.7975 2.20998 7.41667 2.20833ZM7.41667 10.5417C6.58787 10.5417 5.79301 10.2124 5.20696 9.62637C4.62091 9.04032 4.29167 8.24546 4.29167 7.41666C4.29167 6.58786 4.62091 5.793 5.20696 5.20695C5.79301 4.6209 6.58787 4.29166 7.41667 4.29166C8.24547 4.29166 9.04033 4.6209 9.62638 5.20695C10.2124 5.793 10.5417 6.58786 10.5417 7.41666C10.5417 8.24546 10.2124 9.04032 9.62638 9.62637C9.04033 10.2124 8.24547 10.5417 7.41667 10.5417Z" fill="#F65024"/>
</svg>
