<svg width="24" height="18" viewBox="0 0 24 18" fill="none" xmlns="http://www.w3.org/2000/svg">
<path d="M8.59668 4.72378C8.68617 4.63725 8.75755 4.53377 8.80662 4.41937C8.8557 4.30497 8.88151 4.18194 8.88253 4.05746C8.88355 3.93298 8.85977 3.80954 8.81258 3.69435C8.76539 3.57916 8.69573 3.47452 8.60766 3.38653C8.5196 3.29855 8.41489 3.22899 8.29965 3.1819C8.18442 3.13482 8.06096 3.11116 7.93648 3.1123C7.812 3.11344 7.68899 3.13936 7.57463 3.18854C7.46028 3.23773 7.35686 3.3092 7.27042 3.39878L1.02418 9.65253C0.848612 9.82831 0.75 10.0666 0.75 10.315C0.75 10.5635 0.848612 10.8017 1.02418 10.9775L7.27042 17.225C7.44716 17.3959 7.68393 17.4905 7.92974 17.4885C8.17555 17.4865 8.41074 17.388 8.58464 17.2142C8.75854 17.0405 8.85725 16.8054 8.8595 16.5596C8.86175 16.3138 8.76737 16.0769 8.59668 15.9L3.94668 11.25H13.7492C15.7429 11.25 17.2617 10.9475 18.6104 10.295L18.9179 10.1375C20.2894 9.41068 21.4111 8.28896 22.1379 6.91753C22.9004 5.49253 23.2504 3.89503 23.2504 1.74878C23.2504 1.50014 23.1517 1.26168 22.9758 1.08587C22.8 0.910051 22.5616 0.811279 22.3129 0.811279C22.0643 0.811279 21.8258 0.910051 21.65 1.08587C21.4742 1.26168 21.3754 1.50014 21.3754 1.74878C21.3754 3.60378 21.0904 4.89878 20.4842 6.03378C19.9322 7.07808 19.0785 7.93185 18.0342 8.48378C16.9867 9.04378 15.8017 9.32878 14.1667 9.37003L13.7492 9.37503H3.95292L8.59668 4.72378Z" fill="#FE7524"/>
</svg>
